<svg id="svg" version="1.1" width="400" height="379.9410029498525" viewBox="0 0 400 379.9410029498525" xmlns="http://www.w3.org/2000/svg" xmlns:xlink="http://www.w3.org/1999/xlink" ><g id="svgg"><path id="path0" d="M184.719 118.363 C 152.705 150.365,126.374 176.799,126.204 177.104 C 125.935 177.589,127.739 179.502,140.530 192.293 L 155.164 206.928 200.372 161.723 C 225.236 136.861,245.712 116.519,245.875 116.519 C 246.259 116.519,260.472 130.739,260.472 131.124 C 260.472 131.285,239.499 152.390,213.864 178.024 C 188.230 203.657,167.257 224.764,167.257 224.926 C 167.257 225.312,240.470 298.525,240.856 298.525 C 241.242 298.525,361.357 178.408,361.357 178.022 C 361.357 177.542,332.635 148.968,332.153 148.968 C 331.910 148.968,311.449 169.230,286.683 193.995 L 241.655 239.023 240.813 238.413 C 239.318 237.331,227.139 224.910,227.139 224.468 C 227.139 224.233,247.257 203.930,271.847 179.351 C 296.436 154.771,316.694 134.410,316.864 134.104 C 317.203 133.494,244.309 60.177,243.365 60.177 C 243.123 60.177,216.732 86.361,184.719 118.363 " stroke="none" fill="#04abd3" fill-rule="evenodd"></path><path id="path1" d="M91.077 105.826 L 19.027 177.876 104.646 263.495 L 190.265 349.114 207.964 331.416 L 225.664 313.719 159.292 247.344 C 122.788 210.839,92.920 180.839,92.920 180.679 C 92.920 180.518,117.312 155.995,147.123 126.181 L 201.326 71.976 182.227 52.876 L 163.128 33.777 91.077 105.826 " stroke="none" fill="#14245c" fill-rule="evenodd"></path><path id="path2" d="M0.000 189.971 L 0.000 379.941 200.000 379.941 L 400.000 379.941 400.000 189.971 L 400.000 0.000 200.000 0.000 L 0.000 0.000 0.000 189.971 M182.667 52.436 C 193.174 62.943,201.770 71.697,201.770 71.890 C 201.770 72.083,177.478 96.552,147.788 126.264 C 118.097 155.977,93.805 180.442,93.805 180.630 C 93.805 180.819,123.481 210.642,159.752 246.903 C 196.023 283.164,225.838 313.081,226.007 313.386 C 226.345 313.994,191.208 349.558,190.269 349.558 C 189.785 349.558,18.584 178.508,18.584 178.024 C 18.584 177.640,162.887 33.333,163.272 33.333 C 163.433 33.333,172.161 41.930,182.667 52.436 M280.678 96.756 L 317.548 133.630 272.343 178.838 C 247.481 203.702,227.139 224.177,227.139 224.336 C 227.139 224.812,241.107 238.643,241.588 238.643 C 241.832 238.643,262.276 218.400,287.020 193.658 C 311.764 168.916,332.140 148.673,332.301 148.673 C 332.686 148.673,361.652 177.638,361.652 178.023 C 361.652 178.873,241.076 298.880,240.528 298.576 C 238.714 297.570,166.914 225.126,167.207 224.597 C 167.376 224.291,188.364 203.203,213.846 177.734 C 239.328 152.265,260.177 131.221,260.177 130.970 C 260.177 130.393,246.581 116.814,246.003 116.814 C 245.767 116.814,225.331 137.058,200.590 161.799 C 175.848 186.541,155.409 206.785,155.170 206.785 C 154.593 206.785,125.959 178.162,125.959 177.585 C 125.959 177.099,243.026 59.882,243.512 59.882 C 243.675 59.882,260.400 76.475,280.678 96.756 M321.777 75.485 C 321.906 76.832,321.570 76.981,318.394 76.987 C 315.045 76.992,315.339 76.124,315.339 86.007 L 315.339 94.089 314.556 94.286 C 312.847 94.715,312.839 94.678,312.754 85.440 L 312.675 76.991 309.789 76.991 C 306.754 76.991,306.195 76.785,306.195 75.664 C 306.195 74.371,306.509 74.322,314.297 74.405 L 321.681 74.484 321.777 75.485 M328.261 74.589 C 328.473 74.724,329.771 78.203,331.145 82.322 C 332.520 86.440,333.761 89.927,333.904 90.069 C 334.290 90.455,334.523 89.893,337.185 82.153 C 340.047 73.834,339.785 74.284,341.714 74.396 L 343.215 74.484 343.293 84.271 C 343.369 93.855,343.358 94.062,342.777 94.247 C 341.032 94.800,341.003 94.687,340.998 87.222 C 340.992 77.510,341.004 77.510,337.608 87.463 C 335.498 93.649,335.118 94.395,334.081 94.395 C 332.885 94.395,332.493 93.649,330.287 87.168 C 329.072 83.599,327.985 80.446,327.871 80.162 C 327.305 78.742,327.139 80.216,327.139 86.667 C 327.139 91.734,327.040 93.786,326.785 94.041 C 326.330 94.496,325.293 94.496,324.838 94.041 C 324.331 93.535,324.331 75.197,324.838 74.690 C 325.238 74.290,327.675 74.218,328.261 74.589 " stroke="none" fill="#fbfbfb" fill-rule="evenodd"></path><path id="path3" d="M90.781 105.531 C 51.073 145.240,18.584 177.862,18.584 178.024 C 18.584 178.508,189.785 349.558,190.269 349.558 C 191.208 349.558,226.345 313.994,226.007 313.386 C 225.838 313.081,196.023 283.164,159.752 246.903 C 123.481 210.642,93.805 180.819,93.805 180.630 C 93.805 180.442,118.097 155.977,147.788 126.264 C 177.478 96.552,201.770 72.083,201.770 71.890 C 201.770 71.469,163.692 33.333,163.272 33.333 C 163.111 33.333,130.490 65.822,90.781 105.531 M147.123 126.181 C 117.312 155.995,92.920 180.518,92.920 180.679 C 92.920 180.839,122.788 210.839,159.292 247.344 L 225.664 313.719 207.964 331.416 L 190.265 349.114 104.646 263.495 L 19.027 177.876 91.077 105.826 L 163.128 33.777 182.227 52.876 L 201.326 71.976 147.123 126.181 M242.922 60.174 C 242.817 60.345,242.944 60.388,243.230 60.278 C 243.595 60.138,252.977 69.331,280.487 96.786 L 317.257 133.481 280.531 96.681 C 260.333 76.442,243.648 59.882,243.454 59.882 C 243.261 59.882,243.022 60.013,242.922 60.174 M306.554 74.685 C 306.094 75.145,306.092 76.180,306.549 76.637 C 306.776 76.864,307.937 76.991,309.789 76.991 L 312.675 76.991 312.754 85.440 C 312.839 94.678,312.847 94.715,314.556 94.286 L 315.339 94.089 315.339 86.007 C 315.339 76.124,315.045 76.992,318.394 76.987 C 321.570 76.981,321.906 76.832,321.777 75.485 L 321.681 74.484 314.297 74.405 C 308.801 74.347,306.821 74.418,306.554 74.685 M324.838 74.690 C 324.331 75.197,324.331 93.535,324.838 94.041 C 325.293 94.496,326.330 94.496,326.785 94.041 C 327.040 93.786,327.139 91.734,327.139 86.667 C 327.139 80.216,327.305 78.742,327.871 80.162 C 327.985 80.446,329.072 83.599,330.287 87.168 C 332.493 93.649,332.885 94.395,334.081 94.395 C 335.118 94.395,335.498 93.649,337.608 87.463 C 341.004 77.510,340.992 77.510,340.998 87.222 C 341.003 94.687,341.032 94.800,342.777 94.247 C 343.358 94.062,343.369 93.855,343.293 84.271 L 343.215 74.484 341.714 74.396 C 339.785 74.284,340.047 73.834,337.185 82.153 C 334.523 89.893,334.290 90.455,333.904 90.069 C 333.761 89.927,332.520 86.440,331.145 82.322 C 329.771 78.203,328.473 74.724,328.261 74.589 C 327.675 74.218,325.238 74.290,324.838 74.690 M200.295 161.873 L 155.310 206.932 200.369 161.947 C 242.261 120.124,245.560 116.814,245.354 116.814 C 245.313 116.814,225.036 137.091,200.295 161.873 M260.200 130.950 C 260.187 131.181,259.950 131.645,259.672 131.983 C 259.195 132.561,259.206 132.560,259.854 131.963 C 260.232 131.615,260.470 131.150,260.383 130.930 C 260.254 130.607,260.219 130.611,260.200 130.950 M255.310 136.283 C 253.368 138.230,251.846 139.823,251.927 139.823 C 252.008 139.823,253.663 138.230,255.605 136.283 C 257.547 134.336,259.069 132.743,258.988 132.743 C 258.907 132.743,257.252 134.336,255.310 136.283 M242.771 148.894 L 234.071 157.670 242.847 148.969 C 251.002 140.884,251.755 140.118,251.547 140.118 C 251.505 140.118,247.556 144.067,242.771 148.894 M332.153 148.875 C 332.744 149.084,361.357 177.643,361.357 178.023 C 361.357 178.187,334.243 205.433,301.104 238.570 C 267.966 271.708,240.919 298.820,241.002 298.820 C 241.292 298.820,361.652 178.313,361.652 178.022 C 361.652 177.527,332.626 148.671,332.152 148.696 C 331.762 148.716,331.762 148.737,332.153 148.875 M219.173 172.493 L 204.572 187.168 219.248 172.567 C 232.889 158.996,234.056 157.817,233.848 157.817 C 233.807 157.817,227.203 164.421,219.173 172.493 M125.959 177.754 C 125.959 177.904,132.430 184.463,140.339 192.332 L 154.720 206.637 140.413 192.195 C 132.544 184.251,126.073 177.691,126.032 177.617 C 125.992 177.543,125.959 177.605,125.959 177.754 M185.692 205.973 L 167.109 224.631 185.767 206.048 C 203.111 188.774,204.557 187.316,204.350 187.316 C 204.309 187.316,195.913 195.712,185.692 205.973 M233.923 231.711 C 237.571 235.361,240.622 238.348,240.703 238.348 C 240.784 238.348,237.866 235.361,234.218 231.711 C 230.571 228.060,227.520 225.074,227.439 225.074 C 227.357 225.074,230.276 228.060,233.923 231.711 M203.687 261.947 C 223.805 282.065,240.331 298.525,240.412 298.525 C 240.493 298.525,224.100 282.065,203.982 261.947 C 183.865 241.829,167.339 225.369,167.258 225.369 C 167.176 225.369,183.570 241.829,203.687 261.947 " stroke="none" fill="#848c9c" fill-rule="evenodd"></path></g></svg>